<svg width="340" height="331" viewBox="0 0 340 331" fill="none" xmlns="http://www.w3.org/2000/svg">
<circle cx="170" cy="20" r="20" fill="black" fill-opacity="0.08"/>
<circle cx="170" cy="311" r="20" fill="black" fill-opacity="0.56"/>
<ellipse cx="20" cy="163" rx="20" ry="20" transform="rotate(-90 20 163)" fill="black" fill-opacity="0.8"/>
<ellipse cx="320" cy="163" rx="20" ry="20" transform="rotate(-90 320 163)" fill="black" fill-opacity="0.32"/>
<circle cx="96.8301" cy="39.9263" r="20" transform="rotate(-30 96.8301 39.9263)" fill="black"/>
<circle cx="247.321" cy="300.32" r="20" transform="rotate(-30 247.321 300.32)" fill="black" fill-opacity="0.48"/>
<circle cx="36.9263" cy="236.17" r="20" transform="rotate(-120 36.9263 236.17)" fill="black" fill-opacity="0.72"/>
<circle cx="296.734" cy="86.1699" r="20" transform="rotate(-120 296.734 86.1699)" fill="black" fill-opacity="0.24"/>
<circle cx="41.9263" cy="91.1699" r="20" transform="rotate(-60 41.9263 91.1699)" fill="black" fill-opacity="0.88"/>
<circle cx="301.734" cy="241.17" r="20" transform="rotate(-60 301.734 241.17)" fill="black" fill-opacity="0.4"/>
<circle cx="88.1699" cy="291.074" r="20" transform="rotate(-150 88.1699 291.074)" fill="black" fill-opacity="0.64"/>
<circle cx="238.66" cy="36.6603" r="20" transform="rotate(-150 238.66 36.6603)" fill="black" fill-opacity="0.16"/>
</svg>
